<svg width="13" height="20" viewBox="0 0 13 20" fill="none" xmlns="http://www.w3.org/2000/svg">
<path d="M10.0099 0.499817H10.012H10.014C10.5042 0.501846 10.9821 0.703777 11.3252 1.05384C12.0364 1.76922 12.0364 2.93732 11.3227 3.65521L5.0072 9.97074L11.3235 16.3508C12.0364 17.068 12.0364 18.2361 11.3227 18.954C10.9788 19.3007 10.5009 19.4998 10.012 19.4998C9.52303 19.4998 9.04512 19.3007 8.7008 18.9536L1.08655 11.3528C0.713538 11.0046 0.499795 10.5131 0.499795 10.0026C0.499795 9.4922 0.713481 9.0008 1.08641 8.65265L8.70108 1.05144C9.04401 0.702852 9.52083 0.501862 10.0099 0.499817Z" fill="white"/>
<path d="M10.012 18.9998C10.3711 18.9998 10.7153 18.8564 10.9681 18.6015C11.4903 18.0762 11.4903 17.2279 10.9681 16.7026L4.30187 9.96898L10.9681 3.30271C11.4903 2.77744 11.4903 1.9291 10.9681 1.40383C10.7162 1.1468 10.3719 1.00131 10.012 0.999817C9.65207 1.00132 9.30773 1.1468 9.0558 1.40383L1.43336 9.01281C1.157 9.26776 0.9998 9.62664 0.9998 10.0026C0.9998 10.3786 1.157 10.7375 1.43336 10.9925L9.0558 18.6015C9.30867 18.8564 9.65289 18.9998 10.012 18.9998ZM10.012 19.9998C9.39064 19.9998 8.78335 19.7468 8.3458 19.3057L0.738941 11.7123C0.26893 11.2702 -0.000200272 10.6484 -0.000200272 10.0026C-0.000200272 9.35695 0.26889 8.73521 0.738802 8.29317L8.34605 0.699358C8.78172 0.257301 9.38703 0.00240707 10.0078 -0.000173569L10.012 -0.00019455L10.0161 -0.000173569C10.6381 0.00240326 11.2445 0.258217 11.6803 0.701834C12.5842 1.61435 12.5832 3.09645 11.6773 4.00771L5.71254 9.97253L11.6788 15.999C12.5842 16.9098 12.5842 18.3942 11.6773 19.3065C11.2406 19.7468 10.6333 19.9998 10.012 19.9998Z" fill="white"/>
</svg>
