<svg width="8" height="14" viewBox="0 0 8 14" fill="none" xmlns="http://www.w3.org/2000/svg">
<path d="M7.67794 5.94599L2.01794 0.29599C1.83096 0.107686 1.57683 0.00137118 1.31147 0.000433501C1.04611 -0.000504176 0.791239 0.104012 0.602935 0.29099C0.414632 0.477968 0.308317 0.73209 0.307379 0.997454C0.306442 1.26282 0.410958 1.51769 0.597935 1.70599L5.54794 6.70599L0.597935 11.656C0.410958 11.8443 0.306442 12.0992 0.307379 12.3645C0.308317 12.6299 0.414632 12.884 0.602935 13.071C0.791239 13.258 1.04611 13.3625 1.31147 13.3615C1.57683 13.3606 1.83096 13.2543 2.01794 13.066L7.67794 7.41599C7.77944 7.32235 7.86045 7.2087 7.91586 7.0822C7.97126 6.9557 7.99987 6.81909 7.99987 6.68099C7.99987 6.54289 7.97126 6.40628 7.91586 6.27978C7.86045 6.15328 7.77944 6.03963 7.67794 5.94599Z" fill="#E5E2E2"/>
</svg>
