<svg width="16" height="20" viewBox="0 0 16 20" fill="none" xmlns="http://www.w3.org/2000/svg">
<path d="M0 10C0 10.2652 0.105357 10.5196 0.292893 10.7071C0.48043 10.8946 0.734784 11 1 11H8.59L6.29 13.29C6.1017 13.4783 5.99591 13.7337 5.99591 14C5.99591 14.2663 6.1017 14.5217 6.29 14.71C6.4783 14.8983 6.7337 15.0041 7 15.0041C7.2663 15.0041 7.5217 14.8983 7.71 14.71L11.71 10.71C11.8913 10.5181 11.9923 10.264 11.9923 10C11.9923 9.73597 11.8913 9.48195 11.71 9.29L7.71 5.29C7.5217 5.1017 7.2663 4.99591 7 4.99591C6.7337 4.99591 6.4783 5.1017 6.29 5.29C6.1017 5.4783 5.99591 5.7337 5.99591 6C5.99591 6.2663 6.1017 6.5217 6.29 6.71L8.59 9H1C0.734784 9 0.48043 9.10536 0.292893 9.29289C0.105357 9.48043 0 9.73478 0 10ZM13 0H3C2.20435 0 1.44129 0.316071 0.87868 0.87868C0.316071 1.44129 0 2.20435 0 3V6C0 6.26522 0.105357 6.51957 0.292893 6.70711C0.48043 6.89464 0.734784 7 1 7C1.26522 7 1.51957 6.89464 1.70711 6.70711C1.89464 6.51957 2 6.26522 2 6V3C2 2.73478 2.10536 2.48043 2.29289 2.29289C2.48043 2.10536 2.73478 2 3 2H13C13.2652 2 13.5196 2.10536 13.7071 2.29289C13.8946 2.48043 14 2.73478 14 3V17C14 17.2652 13.8946 17.5196 13.7071 17.7071C13.5196 17.8946 13.2652 18 13 18H3C2.73478 18 2.48043 17.8946 2.29289 17.7071C2.10536 17.5196 2 17.2652 2 17V14C2 13.7348 1.89464 13.4804 1.70711 13.2929C1.51957 13.1054 1.26522 13 1 13C0.734784 13 0.48043 13.1054 0.292893 13.2929C0.105357 13.4804 0 13.7348 0 14V17C0 17.7956 0.316071 18.5587 0.87868 19.1213C1.44129 19.6839 2.20435 20 3 20H13C13.7956 20 14.5587 19.6839 15.1213 19.1213C15.6839 18.5587 16 17.7956 16 17V3C16 2.20435 15.6839 1.44129 15.1213 0.87868C14.5587 0.316071 13.7956 0 13 0Z" fill="#505050"/>
</svg>
